<svg width="141" height="40" viewBox="0 0 141 40" fill="none" xmlns="http://www.w3.org/2000/svg">
<path d="M45.679 15.7326H48.899V17.2866H43.719V7.51462H45.679V15.7326ZM53.5888 17.4126C52.8421 17.4126 52.1701 17.2493 51.5728 16.9226C50.9754 16.5866 50.5041 16.1153 50.1588 15.5086C49.8228 14.902 49.6548 14.202 49.6548 13.4086C49.6548 12.6153 49.8274 11.9153 50.1728 11.3086C50.5274 10.702 51.0081 10.2353 51.6148 9.90862C52.2214 9.57262 52.8981 9.40462 53.6448 9.40462C54.3914 9.40462 55.0681 9.57262 55.6748 9.90862C56.2814 10.2353 56.7574 10.702 57.1028 11.3086C57.4574 11.9153 57.6348 12.6153 57.6348 13.4086C57.6348 14.202 57.4528 14.902 57.0888 15.5086C56.7341 16.1153 56.2488 16.5866 55.6328 16.9226C55.0261 17.2493 54.3448 17.4126 53.5888 17.4126ZM53.5888 15.7046C53.9434 15.7046 54.2748 15.6206 54.5828 15.4526C54.9001 15.2753 55.1521 15.014 55.3388 14.6686C55.5254 14.3233 55.6188 13.9033 55.6188 13.4086C55.6188 12.6713 55.4228 12.1066 55.0308 11.7146C54.6481 11.3133 54.1768 11.1126 53.6168 11.1126C53.0568 11.1126 52.5854 11.3133 52.2028 11.7146C51.8294 12.1066 51.6428 12.6713 51.6428 13.4086C51.6428 14.146 51.8248 14.7153 52.1888 15.1166C52.5621 15.5086 53.0288 15.7046 53.5888 15.7046ZM62.1105 9.40462C62.6892 9.40462 63.1978 9.52129 63.6365 9.75462C64.0752 9.97862 64.4205 10.2726 64.6725 10.6366V9.53062H66.6465V17.3426C66.6465 18.0613 66.5018 18.7006 66.2125 19.2606C65.9232 19.83 65.4892 20.278 64.9105 20.6046C64.3318 20.9406 63.6318 21.1086 62.8105 21.1086C61.7092 21.1086 60.8038 20.852 60.0945 20.3386C59.3945 19.8253 58.9978 19.1253 58.9045 18.2386H60.8505C60.9532 18.5933 61.1725 18.8733 61.5085 19.0786C61.8538 19.2933 62.2692 19.4006 62.7545 19.4006C63.3238 19.4006 63.7858 19.228 64.1405 18.8826C64.4952 18.5466 64.6725 18.0333 64.6725 17.3426V16.1386C64.4205 16.5026 64.0705 16.806 63.6225 17.0486C63.1838 17.2913 62.6798 17.4126 62.1105 17.4126C61.4572 17.4126 60.8598 17.2446 60.3185 16.9086C59.7772 16.5726 59.3478 16.1013 59.0305 15.4946C58.7225 14.8786 58.5685 14.174 58.5685 13.3806C58.5685 12.5966 58.7225 11.9013 59.0305 11.2946C59.3478 10.688 59.7725 10.2213 60.3045 9.89462C60.8458 9.56795 61.4478 9.40462 62.1105 9.40462ZM64.6725 13.4086C64.6725 12.9326 64.5792 12.5266 64.3925 12.1906C64.2058 11.8453 63.9538 11.584 63.6365 11.4066C63.3192 11.22 62.9785 11.1266 62.6145 11.1266C62.2505 11.1266 61.9145 11.2153 61.6065 11.3926C61.2985 11.57 61.0465 11.8313 60.8505 12.1766C60.6638 12.5126 60.5705 12.914 60.5705 13.3806C60.5705 13.8473 60.6638 14.258 60.8505 14.6126C61.0465 14.958 61.2985 15.224 61.6065 15.4106C61.9238 15.5973 62.2598 15.6906 62.6145 15.6906C62.9785 15.6906 63.3192 15.602 63.6365 15.4246C63.9538 15.238 64.2058 14.9766 64.3925 14.6406C64.5792 14.2953 64.6725 13.8846 64.6725 13.4086ZM72.0048 17.4126C71.2581 17.4126 70.5861 17.2493 69.9888 16.9226C69.3915 16.5866 68.9201 16.1153 68.5748 15.5086C68.2388 14.902 68.0708 14.202 68.0708 13.4086C68.0708 12.6153 68.2435 11.9153 68.5888 11.3086C68.9435 10.702 69.4241 10.2353 70.0308 9.90862C70.6375 9.57262 71.3141 9.40462 72.0608 9.40462C72.8075 9.40462 73.4841 9.57262 74.0908 9.90862C74.6975 10.2353 75.1735 10.702 75.5188 11.3086C75.8735 11.9153 76.0508 12.6153 76.0508 13.4086C76.0508 14.202 75.8688 14.902 75.5048 15.5086C75.1501 16.1153 74.6648 16.5866 74.0488 16.9226C73.4421 17.2493 72.7608 17.4126 72.0048 17.4126ZM72.0048 15.7046C72.3595 15.7046 72.6908 15.6206 72.9988 15.4526C73.3161 15.2753 73.5681 15.014 73.7548 14.6686C73.9415 14.3233 74.0348 13.9033 74.0348 13.4086C74.0348 12.6713 73.8388 12.1066 73.4468 11.7146C73.0641 11.3133 72.5928 11.1126 72.0328 11.1126C71.4728 11.1126 71.0015 11.3133 70.6188 11.7146C70.2455 12.1066 70.0588 12.6713 70.0588 13.4086C70.0588 14.146 70.2408 14.7153 70.6048 15.1166C70.9781 15.5086 71.4448 15.7046 72.0048 15.7046ZM85.1225 9.41862C86.0465 9.41862 86.7931 9.71262 87.3625 10.3006C87.9318 10.8793 88.2165 11.6913 88.2165 12.7366V17.2866H86.2565V13.0026C86.2565 12.3866 86.1025 11.9153 85.7945 11.5886C85.4865 11.2526 85.0665 11.0846 84.5345 11.0846C83.9931 11.0846 83.5638 11.2526 83.2465 11.5886C82.9385 11.9153 82.7845 12.3866 82.7845 13.0026V17.2866H80.8245V9.53062H82.7845V10.4966C83.0458 10.1606 83.3771 9.89929 83.7785 9.71262C84.1891 9.51662 84.6371 9.41862 85.1225 9.41862ZM89.5763 13.3806C89.5763 12.5966 89.7303 11.9013 90.0383 11.2946C90.3557 10.688 90.7803 10.2213 91.3123 9.89462C91.8537 9.56795 92.4557 9.40462 93.1183 9.40462C93.697 9.40462 94.201 9.52129 94.6303 9.75462C95.069 9.98795 95.419 10.282 95.6803 10.6366V9.53062H97.6543V17.2866H95.6803V16.1526C95.4283 16.5166 95.0783 16.82 94.6303 17.0626C94.1917 17.296 93.683 17.4126 93.1043 17.4126C92.451 17.4126 91.8537 17.2446 91.3123 16.9086C90.7803 16.5726 90.3557 16.1013 90.0383 15.4946C89.7303 14.8786 89.5763 14.174 89.5763 13.3806ZM95.6803 13.4086C95.6803 12.9326 95.587 12.5266 95.4003 12.1906C95.2137 11.8453 94.9617 11.584 94.6443 11.4066C94.327 11.22 93.9863 11.1266 93.6223 11.1266C93.2583 11.1266 92.9223 11.2153 92.6143 11.3926C92.3063 11.57 92.0543 11.8313 91.8583 12.1766C91.6717 12.5126 91.5783 12.914 91.5783 13.3806C91.5783 13.8473 91.6717 14.258 91.8583 14.6126C92.0543 14.958 92.3063 15.224 92.6143 15.4106C92.9317 15.5973 93.2677 15.6906 93.6223 15.6906C93.9863 15.6906 94.327 15.602 94.6443 15.4246C94.9617 15.238 95.2137 14.9766 95.4003 14.6406C95.587 14.2953 95.6803 13.8846 95.6803 13.4086ZM109.201 9.41862C110.153 9.41862 110.918 9.71262 111.497 10.3006C112.085 10.8793 112.379 11.6913 112.379 12.7366V17.2866H110.419V13.0026C110.419 12.396 110.265 11.934 109.957 11.6166C109.649 11.29 109.229 11.1266 108.697 11.1266C108.165 11.1266 107.74 11.29 107.423 11.6166C107.115 11.934 106.961 12.396 106.961 13.0026V17.2866H105.001V13.0026C105.001 12.396 104.847 11.934 104.539 11.6166C104.231 11.29 103.811 11.1266 103.279 11.1266C102.737 11.1266 102.308 11.29 101.991 11.6166C101.683 11.934 101.529 12.396 101.529 13.0026V17.2866H99.5686V9.53062H101.529V10.4686C101.781 10.142 102.103 9.88529 102.495 9.69862C102.896 9.51195 103.335 9.41862 103.811 9.41862C104.417 9.41862 104.959 9.54929 105.435 9.81062C105.911 10.0626 106.279 10.4266 106.541 10.9026C106.793 10.4546 107.157 10.0953 107.633 9.82462C108.118 9.55395 108.641 9.41862 109.201 9.41862ZM121.561 9.53062V17.2866H119.587V16.3066C119.335 16.6426 119.003 16.9086 118.593 17.1046C118.191 17.2913 117.753 17.3846 117.277 17.3846C116.67 17.3846 116.133 17.2586 115.667 17.0066C115.2 16.7453 114.831 16.3673 114.561 15.8726C114.299 15.3686 114.169 14.7713 114.169 14.0806V9.53062H116.129V13.8006C116.129 14.4166 116.283 14.8926 116.591 15.2286C116.899 15.5553 117.319 15.7186 117.851 15.7186C118.392 15.7186 118.817 15.5553 119.125 15.2286C119.433 14.8926 119.587 14.4166 119.587 13.8006V9.53062H121.561ZM127.792 9.41862C128.716 9.41862 129.463 9.71262 130.032 10.3006C130.602 10.8793 130.886 11.6913 130.886 12.7366V17.2866H128.926V13.0026C128.926 12.3866 128.772 11.9153 128.464 11.5886C128.156 11.2526 127.736 11.0846 127.204 11.0846C126.663 11.0846 126.234 11.2526 125.916 11.5886C125.608 11.9153 125.454 12.3866 125.454 13.0026V17.2866H123.494V9.53062H125.454V10.4966C125.716 10.1606 126.047 9.89929 126.448 9.71262C126.859 9.51662 127.307 9.41862 127.792 9.41862ZM132.246 13.3806C132.246 12.5966 132.4 11.9013 132.708 11.2946C133.026 10.688 133.45 10.2213 133.982 9.89462C134.524 9.56795 135.126 9.40462 135.788 9.40462C136.367 9.40462 136.871 9.52129 137.3 9.75462C137.739 9.98795 138.089 10.282 138.35 10.6366V9.53062H140.324V17.2866H138.35V16.1526C138.098 16.5166 137.748 16.82 137.3 17.0626C136.862 17.296 136.353 17.4126 135.774 17.4126C135.121 17.4126 134.524 17.2446 133.982 16.9086C133.45 16.5726 133.026 16.1013 132.708 15.4946C132.4 14.8786 132.246 14.174 132.246 13.3806ZM138.35 13.4086C138.35 12.9326 138.257 12.5266 138.07 12.1906C137.884 11.8453 137.632 11.584 137.314 11.4066C136.997 11.22 136.656 11.1266 136.292 11.1266C135.928 11.1266 135.592 11.2153 135.284 11.3926C134.976 11.57 134.724 11.8313 134.528 12.1766C134.342 12.5126 134.248 12.914 134.248 13.3806C134.248 13.8473 134.342 14.258 134.528 14.6126C134.724 14.958 134.976 15.224 135.284 15.4106C135.602 15.5973 135.938 15.6906 136.292 15.6906C136.656 15.6906 136.997 15.602 137.314 15.4246C137.632 15.238 137.884 14.9766 138.07 14.6406C138.257 14.2953 138.35 13.8846 138.35 13.4086Z" fill="#929292"/>
<path d="M45.1354 30.6345H46.8884V31.2866H44.2099V30.6345L45.9698 28.0753H44.2099V27.4232H46.8884V28.0753L45.1354 30.6345ZM47.4612 29.3374C47.4612 28.9494 47.5407 28.6058 47.6996 28.3066C47.8632 28.0075 48.0829 27.7761 48.3587 27.6125C48.6392 27.4442 48.9477 27.3601 49.2843 27.3601C49.5881 27.3601 49.8522 27.4208 50.0766 27.5424C50.3056 27.6592 50.488 27.8065 50.6235 27.9841V27.4232H51.4299V31.2866H50.6235V30.7117C50.488 30.894 50.3033 31.0459 50.0696 31.1674C49.8359 31.289 49.5694 31.3497 49.2703 31.3497C48.9384 31.3497 48.6345 31.2656 48.3587 31.0973C48.0829 30.9243 47.8632 30.686 47.6996 30.3821C47.5407 30.0736 47.4612 29.7253 47.4612 29.3374ZM50.6235 29.3514C50.6235 29.0849 50.5674 28.8536 50.4552 28.6572C50.3477 28.4609 50.2051 28.3113 50.0275 28.2085C49.8499 28.1056 49.6582 28.0542 49.4526 28.0542C49.2469 28.0542 49.0552 28.1056 48.8776 28.2085C48.7 28.3066 48.5551 28.4539 48.4429 28.6502C48.3354 28.8419 48.2816 29.0709 48.2816 29.3374C48.2816 29.6038 48.3354 29.8375 48.4429 30.0385C48.5551 30.2395 48.7 30.3938 48.8776 30.5013C49.0599 30.6041 49.2516 30.6556 49.4526 30.6556C49.6582 30.6556 49.8499 30.6041 50.0275 30.5013C50.2051 30.3985 50.3477 30.2489 50.4552 30.0526C50.5674 29.8516 50.6235 29.6178 50.6235 29.3514ZM57.1566 27.3601C57.4604 27.3601 57.7315 27.4232 57.9699 27.5494C58.213 27.6756 58.4023 27.8626 58.5379 28.1103C58.6781 28.3581 58.7482 28.6572 58.7482 29.0078V31.2866H57.9559V29.127C57.9559 28.7811 57.8694 28.517 57.6965 28.3347C57.5235 28.1477 57.2874 28.0542 56.9883 28.0542C56.6891 28.0542 56.4507 28.1477 56.2731 28.3347C56.1001 28.517 56.0137 28.7811 56.0137 29.127V31.2866H55.2213V29.127C55.2213 28.7811 55.1349 28.517 54.9619 28.3347C54.7889 28.1477 54.5529 28.0542 54.2537 28.0542C53.9545 28.0542 53.7161 28.1477 53.5385 28.3347C53.3656 28.517 53.2791 28.7811 53.2791 29.127V31.2866H52.4798V27.4232H53.2791V27.8649C53.41 27.706 53.5759 27.5821 53.7769 27.4933C53.9779 27.4045 54.1929 27.3601 54.422 27.3601C54.7305 27.3601 55.0063 27.4255 55.2494 27.5564C55.4924 27.6873 55.6794 27.8766 55.8103 28.1243C55.9272 27.8906 56.1095 27.706 56.3572 27.5704C56.605 27.4302 56.8714 27.3601 57.1566 27.3601ZM61.4412 31.3497C61.0765 31.3497 60.747 31.2679 60.4525 31.1043C60.158 30.936 59.9266 30.7023 59.7583 30.4031C59.5901 30.0993 59.5059 29.7487 59.5059 29.3514C59.5059 28.9587 59.5924 28.6105 59.7654 28.3066C59.9383 28.0028 60.1744 27.7691 60.4735 27.6055C60.7727 27.4419 61.1069 27.3601 61.4762 27.3601C61.8455 27.3601 62.1797 27.4419 62.4789 27.6055C62.778 27.7691 63.0141 28.0028 63.1871 28.3066C63.36 28.6105 63.4465 28.9587 63.4465 29.3514C63.4465 29.744 63.3577 30.0923 63.1801 30.3961C63.0024 30.7 62.7594 30.936 62.4508 31.1043C62.147 31.2679 61.8104 31.3497 61.4412 31.3497ZM61.4412 30.6556C61.6468 30.6556 61.8385 30.6065 62.0161 30.5083C62.1984 30.4102 62.3457 30.2629 62.4578 30.0666C62.57 29.8703 62.6261 29.6319 62.6261 29.3514C62.6261 29.0709 62.5724 28.8349 62.4649 28.6432C62.3573 28.4469 62.2148 28.2996 62.0371 28.2015C61.8595 28.1033 61.6679 28.0542 61.4622 28.0542C61.2565 28.0542 61.0649 28.1033 60.8872 28.2015C60.7143 28.2996 60.5764 28.4469 60.4735 28.6432C60.3707 28.8349 60.3193 29.0709 60.3193 29.3514C60.3193 29.7674 60.4245 30.09 60.6348 30.319C60.8498 30.5434 61.1186 30.6556 61.4412 30.6556ZM66.1859 27.3601C66.4898 27.3601 66.7609 27.4232 66.9993 27.5494C67.2424 27.6756 67.4317 27.8626 67.5672 28.1103C67.7028 28.3581 67.7706 28.6572 67.7706 29.0078V31.2866H66.9783V29.127C66.9783 28.7811 66.8918 28.517 66.7188 28.3347C66.5459 28.1477 66.3098 28.0542 66.0106 28.0542C65.7115 28.0542 65.4731 28.1477 65.2955 28.3347C65.1225 28.517 65.036 28.7811 65.036 29.127V31.2866H64.2367V27.4232H65.036V27.8649C65.1669 27.706 65.3328 27.5821 65.5338 27.4933C65.7395 27.4045 65.9569 27.3601 66.1859 27.3601ZM68.5237 29.3374C68.5237 28.9494 68.6032 28.6058 68.7621 28.3066C68.9257 28.0075 69.1454 27.7761 69.4212 27.6125C69.7017 27.4442 70.0102 27.3601 70.3468 27.3601C70.6506 27.3601 70.9147 27.4208 71.1391 27.5424C71.3682 27.6592 71.5505 27.8065 71.686 27.9841V27.4232H72.4924V31.2866H71.686V30.7117C71.5505 30.894 71.3658 31.0459 71.1321 31.1674C70.8984 31.289 70.6319 31.3497 70.3328 31.3497C70.0009 31.3497 69.697 31.2656 69.4212 31.0973C69.1454 30.9243 68.9257 30.686 68.7621 30.3821C68.6032 30.0736 68.5237 29.7253 68.5237 29.3374ZM71.686 29.3514C71.686 29.0849 71.6299 28.8536 71.5177 28.6572C71.4102 28.4609 71.2677 28.3113 71.09 28.2085C70.9124 28.1056 70.7207 28.0542 70.5151 28.0542C70.3094 28.0542 70.1177 28.1056 69.9401 28.2085C69.7625 28.3066 69.6176 28.4539 69.5054 28.6502C69.3979 28.8419 69.3441 29.0709 69.3441 29.3374C69.3441 29.6038 69.3979 29.8375 69.5054 30.0385C69.6176 30.2395 69.7625 30.3938 69.9401 30.5013C70.1224 30.6041 70.3141 30.6556 70.5151 30.6556C70.7207 30.6556 70.9124 30.6041 71.09 30.5013C71.2677 30.3985 71.4102 30.2489 71.5177 30.0526C71.6299 29.8516 71.686 29.6178 71.686 29.3514ZM75.0358 30.5714L76.1296 27.4232H76.978L75.5055 31.2866H74.5519L73.0865 27.4232H73.9419L75.0358 30.5714ZM77.9889 26.9113C77.844 26.9113 77.7224 26.8622 77.6243 26.7641C77.5261 26.6659 77.477 26.5444 77.477 26.3995C77.477 26.2546 77.5261 26.133 77.6243 26.0349C77.7224 25.9367 77.844 25.8876 77.9889 25.8876C78.1291 25.8876 78.2483 25.9367 78.3465 26.0349C78.4446 26.133 78.4937 26.2546 78.4937 26.3995C78.4937 26.5444 78.4446 26.6659 78.3465 26.7641C78.2483 26.8622 78.1291 26.9113 77.9889 26.9113ZM78.3815 27.4232V31.2866H77.5822V27.4232H78.3815ZM82.9088 27.4232L80.5388 33.1027H79.7115L80.4968 31.2235L78.9752 27.4232H79.8657L80.9525 30.3681L82.0814 27.4232H82.9088ZM86.266 28.0753V30.2138C86.266 30.3587 86.2987 30.4639 86.3641 30.5294C86.4343 30.5901 86.5511 30.6205 86.7147 30.6205H87.2056V31.2866H86.5745C86.2146 31.2866 85.9388 31.2025 85.7471 31.0342C85.5555 30.8659 85.4596 30.5925 85.4596 30.2138V28.0753H85.0039V27.4232H85.4596V26.4626H86.266V27.4232H87.2056V28.0753H86.266ZM91.4832 29.2602C91.4832 29.4051 91.4738 29.536 91.4551 29.6529H88.5032C88.5266 29.9614 88.6411 30.2092 88.8468 30.3961C89.0525 30.5831 89.3049 30.6766 89.604 30.6766C90.0341 30.6766 90.3379 30.4966 90.5156 30.1367H91.378C91.2611 30.492 91.0485 30.7841 90.7399 31.0132C90.4361 31.2375 90.0575 31.3497 89.604 31.3497C89.2348 31.3497 88.9029 31.2679 88.6084 31.1043C88.3186 30.936 88.0895 30.7023 87.9212 30.4031C87.7576 30.0993 87.6758 29.7487 87.6758 29.3514C87.6758 28.9541 87.7553 28.6058 87.9142 28.3066C88.0778 28.0028 88.3045 27.7691 88.5944 27.6055C88.8889 27.4419 89.2254 27.3601 89.604 27.3601C89.9687 27.3601 90.2935 27.4395 90.5787 27.5985C90.8638 27.7574 91.0859 27.9818 91.2448 28.2716C91.4037 28.5567 91.4832 28.8863 91.4832 29.2602ZM90.6488 29.0078C90.6441 28.7133 90.5389 28.4773 90.3333 28.2996C90.1276 28.122 89.8728 28.0332 89.569 28.0332C89.2932 28.0332 89.0571 28.122 88.8608 28.2996C88.6645 28.4726 88.5476 28.7087 88.5102 29.0078H90.6488ZM93.9246 29.3304L95.1727 31.2866H94.2681L93.4338 29.9754L92.6484 31.2866H91.8141L93.0621 29.3864L91.8141 27.4232H92.7186L93.553 28.7344L94.3383 27.4232H95.1727L93.9246 29.3304ZM97.7181 27.3601C98.0219 27.3601 98.293 27.4232 98.5314 27.5494C98.7745 27.6756 98.9638 27.8626 99.0994 28.1103C99.2349 28.3581 99.3027 28.6572 99.3027 29.0078V31.2866H98.5104V29.127C98.5104 28.7811 98.4239 28.517 98.251 28.3347C98.078 28.1477 97.8419 28.0542 97.5428 28.0542C97.2436 28.0542 97.0052 28.1477 96.8276 28.3347C96.6546 28.517 96.5682 28.7811 96.5682 29.127V31.2866H95.7688V27.4232H96.5682V27.8649C96.699 27.706 96.865 27.5821 97.066 27.4933C97.2717 27.4045 97.489 27.3601 97.7181 27.3601ZM100.729 26.9113C100.584 26.9113 100.463 26.8622 100.364 26.7641C100.266 26.6659 100.217 26.5444 100.217 26.3995C100.217 26.2546 100.266 26.133 100.364 26.0349C100.463 25.9367 100.584 25.8876 100.729 25.8876C100.869 25.8876 100.988 25.9367 101.087 26.0349C101.185 26.133 101.234 26.2546 101.234 26.3995C101.234 26.5444 101.185 26.6659 101.087 26.7641C100.988 26.8622 100.869 26.9113 100.729 26.9113ZM101.122 27.4232V31.2866H100.322V27.4232H101.122ZM103.7 29.3584L105.481 31.2866H104.401L102.97 29.6248V31.2866H102.171V26.098H102.97V29.113L104.373 27.4232H105.481L103.7 29.3584ZM105.787 29.3374C105.787 28.9494 105.867 28.6058 106.026 28.3066C106.189 28.0075 106.409 27.7761 106.685 27.6125C106.965 27.4442 107.274 27.3601 107.61 27.3601C107.914 27.3601 108.178 27.4208 108.402 27.5424C108.632 27.6592 108.814 27.8065 108.949 27.9841V27.4232H109.756V31.2866H108.949V30.7117C108.814 30.894 108.629 31.0459 108.395 31.1674C108.162 31.289 107.895 31.3497 107.596 31.3497C107.264 31.3497 106.96 31.2656 106.685 31.0973C106.409 30.9243 106.189 30.686 106.026 30.3821C105.867 30.0736 105.787 29.7253 105.787 29.3374ZM108.949 29.3514C108.949 29.0849 108.893 28.8536 108.781 28.6572C108.674 28.4609 108.531 28.3113 108.353 28.2085C108.176 28.1056 107.984 28.0542 107.778 28.0542C107.573 28.0542 107.381 28.1056 107.203 28.2085C107.026 28.3066 106.881 28.4539 106.769 28.6502C106.661 28.8419 106.607 29.0709 106.607 29.3374C106.607 29.6038 106.661 29.8375 106.769 30.0385C106.881 30.2395 107.026 30.3938 107.203 30.5013C107.386 30.6041 107.577 30.6556 107.778 30.6556C107.984 30.6556 108.176 30.6041 108.353 30.5013C108.531 30.3985 108.674 30.2489 108.781 30.0526C108.893 29.8516 108.949 29.6178 108.949 29.3514ZM112.361 29.3374C112.361 28.9494 112.44 28.6058 112.599 28.3066C112.763 28.0075 112.982 27.7761 113.258 27.6125C113.539 27.4442 113.849 27.3601 114.191 27.3601C114.443 27.3601 114.691 27.4162 114.934 27.5283C115.182 27.6359 115.378 27.7808 115.523 27.9631V26.098H116.329V31.2866H115.523V30.7046C115.392 30.8916 115.21 31.0459 114.976 31.1674C114.747 31.289 114.483 31.3497 114.184 31.3497C113.847 31.3497 113.539 31.2656 113.258 31.0973C112.982 30.9243 112.763 30.686 112.599 30.3821C112.44 30.0736 112.361 29.7253 112.361 29.3374ZM115.523 29.3514C115.523 29.0849 115.467 28.8536 115.355 28.6572C115.247 28.4609 115.105 28.3113 114.927 28.2085C114.749 28.1056 114.558 28.0542 114.352 28.0542C114.146 28.0542 113.955 28.1056 113.777 28.2085C113.599 28.3066 113.454 28.4539 113.342 28.6502C113.235 28.8419 113.181 29.0709 113.181 29.3374C113.181 29.6038 113.235 29.8375 113.342 30.0385C113.454 30.2395 113.599 30.3938 113.777 30.5013C113.959 30.6041 114.151 30.6556 114.352 30.6556C114.558 30.6556 114.749 30.6041 114.927 30.5013C115.105 30.3985 115.247 30.2489 115.355 30.0526C115.467 29.8516 115.523 29.6178 115.523 29.3514ZM120.878 27.4232V31.2866H120.079V30.8309C119.952 30.9898 119.786 31.116 119.581 31.2095C119.38 31.2983 119.165 31.3427 118.936 31.3427C118.632 31.3427 118.358 31.2796 118.115 31.1534C117.877 31.0272 117.688 30.8402 117.547 30.5925C117.412 30.3447 117.344 30.0455 117.344 29.695V27.4232H118.136V29.5758C118.136 29.9217 118.223 30.1881 118.396 30.3751C118.569 30.5574 118.805 30.6486 119.104 30.6486C119.403 30.6486 119.639 30.5574 119.812 30.3751C119.99 30.1881 120.079 29.9217 120.079 29.5758V27.4232H120.878ZM123.882 27.3601C124.186 27.3601 124.457 27.4232 124.695 27.5494C124.938 27.6756 125.128 27.8626 125.263 28.1103C125.399 28.3581 125.467 28.6572 125.467 29.0078V31.2866H124.674V29.127C124.674 28.7811 124.588 28.517 124.415 28.3347C124.242 28.1477 124.006 28.0542 123.707 28.0542C123.407 28.0542 123.169 28.1477 122.991 28.3347C122.818 28.517 122.732 28.7811 122.732 29.127V31.2866H121.933V27.4232H122.732V27.8649C122.863 27.706 123.029 27.5821 123.23 27.4933C123.435 27.4045 123.653 27.3601 123.882 27.3601ZM129.964 27.4232L127.594 33.1027H126.767L127.552 31.2235L126.03 27.4232H126.921L128.008 30.3681L129.137 27.4232H129.964ZM132.243 31.3497C131.878 31.3497 131.549 31.2679 131.254 31.1043C130.96 30.936 130.728 30.7023 130.56 30.4031C130.392 30.0993 130.308 29.7487 130.308 29.3514C130.308 28.9587 130.394 28.6105 130.567 28.3066C130.74 28.0028 130.976 27.7691 131.275 27.6055C131.574 27.4419 131.909 27.3601 132.278 27.3601C132.647 27.3601 132.982 27.4419 133.281 27.6055C133.58 27.7691 133.816 28.0028 133.989 28.3066C134.162 28.6105 134.248 28.9587 134.248 29.3514C134.248 29.744 134.159 30.0923 133.982 30.3961C133.804 30.7 133.561 30.936 133.253 31.1043C132.949 31.2679 132.612 31.3497 132.243 31.3497ZM132.243 30.6556C132.449 30.6556 132.64 30.6065 132.818 30.5083C133 30.4102 133.147 30.2629 133.26 30.0666C133.372 29.8703 133.428 29.6319 133.428 29.3514C133.428 29.0709 133.374 28.8349 133.267 28.6432C133.159 28.4469 133.017 28.2996 132.839 28.2015C132.661 28.1033 132.47 28.0542 132.264 28.0542C132.058 28.0542 131.867 28.1033 131.689 28.2015C131.516 28.2996 131.378 28.4469 131.275 28.6432C131.172 28.8349 131.121 29.0709 131.121 29.3514C131.121 29.7674 131.226 30.09 131.437 30.319C131.652 30.5434 131.92 30.6556 132.243 30.6556ZM136.441 31.3497C136.137 31.3497 135.864 31.296 135.62 31.1885C135.382 31.0763 135.193 30.9267 135.053 30.7397C134.912 30.5481 134.837 30.3354 134.828 30.1016H135.656C135.67 30.2652 135.747 30.4031 135.887 30.5153C136.032 30.6228 136.212 30.6766 136.427 30.6766C136.651 30.6766 136.824 30.6345 136.946 30.5504C137.072 30.4616 137.135 30.3494 137.135 30.2138C137.135 30.0689 137.065 29.9614 136.925 29.8913C136.789 29.8212 136.572 29.744 136.273 29.6599C135.983 29.5804 135.747 29.5033 135.564 29.4285C135.382 29.3537 135.223 29.2392 135.088 29.0849C134.957 28.9307 134.891 28.7273 134.891 28.4749C134.891 28.2693 134.952 28.0823 135.074 27.914C135.195 27.741 135.368 27.6055 135.592 27.5073C135.821 27.4091 136.083 27.3601 136.378 27.3601C136.817 27.3601 137.17 27.4723 137.436 27.6966C137.708 27.9163 137.853 28.2178 137.871 28.6011H137.072C137.058 28.4282 136.988 28.2903 136.862 28.1874C136.735 28.0846 136.565 28.0332 136.35 28.0332C136.139 28.0332 135.978 28.0729 135.866 28.1524C135.754 28.2319 135.698 28.337 135.698 28.4679C135.698 28.5708 135.735 28.6572 135.81 28.7273C135.885 28.7975 135.976 28.8536 136.083 28.8956C136.191 28.933 136.35 28.9821 136.56 29.0429C136.84 29.1177 137.07 29.1948 137.247 29.2743C137.429 29.3491 137.586 29.4612 137.717 29.6108C137.848 29.7604 137.916 29.9591 137.92 30.2068C137.92 30.4265 137.86 30.6228 137.738 30.7958C137.616 30.9688 137.443 31.1043 137.219 31.2025C136.999 31.3006 136.74 31.3497 136.441 31.3497ZM139.191 26.9113C139.046 26.9113 138.924 26.8622 138.826 26.7641C138.728 26.6659 138.679 26.5444 138.679 26.3995C138.679 26.2546 138.728 26.133 138.826 26.0349C138.924 25.9367 139.046 25.8876 139.191 25.8876C139.331 25.8876 139.45 25.9367 139.548 26.0349C139.646 26.133 139.696 26.2546 139.696 26.3995C139.696 26.5444 139.646 26.6659 139.548 26.7641C139.45 26.8622 139.331 26.9113 139.191 26.9113ZM139.583 27.4232V31.2866H138.784V27.4232H139.583Z" fill="#D7D7D7"/>
<path d="M3.82697 3.8467C7.67239 0.00238299 12.1811 -0.0177722 18.9947 0.00238328C25.7731 0.0224345 30.2162 0.00238347 34.0586 3.8467C45.1404 14.934 29.7992 40 18.9947 40C8.19022 40 -7.25539 14.9259 3.82697 3.8467Z" fill="#E2E2E2"/>
<path d="M26.5 13.3125H23.3125V12.9375C23.3125 10.5563 21.3813 8.625 19 8.625C16.6188 8.625 14.6875 10.5563 14.6875 12.9375V13.3125H11.5C11.0852 13.3125 10.75 13.6477 10.75 14.0625V26.625C10.75 27.0398 11.0852 27.375 11.5 27.375H26.5C26.9148 27.375 27.25 27.0398 27.25 26.625V14.0625C27.25 13.6477 26.9148 13.3125 26.5 13.3125ZM21.625 13.3125H16.375V12.9375C16.375 11.4867 17.5492 10.3125 19 10.3125C20.4508 10.3125 21.625 11.4867 21.625 12.9375V13.3125Z" fill="#929292"/>
</svg>
